HIERARCHY
ROOT Hips
{
	OFFSET -14.64140 90.27770 -84.91600
	CHANNELS 6 Xposition Yposition Zposition Zrotation Xrotation Yrotation
	JOINT Spine
	{
		OFFSET 0.00000 13.20850 -1.60436
		CHANNELS 3 Zrotation Xrotation Yrotation
		JOINT Spine1
		{
			OFFSET 0.00000 8.61716 0.00000
			CHANNELS 3 Zrotation Xrotation Yrotation
			JOINT Spine2
			{
				OFFSET 0.00000 8.61717 0.00000
				CHANNELS 3 Zrotation Xrotation Yrotation
				JOINT Spine3
				{
					OFFSET 0.00000 8.61717 0.00000
					CHANNELS 3 Zrotation Xrotation Yrotation
					JOINT Neck
					{
						OFFSET 0.00000 11.07920 1.10792
						CHANNELS 3 Zrotation Xrotation Yrotation
						JOINT Neck1
						{
							OFFSET 0.00000 7.08032 0.00000
							CHANNELS 3 Zrotation Xrotation Yrotation
							JOINT Head
							{
								OFFSET 0.00000 7.08031 0.00000
								CHANNELS 3 Zrotation Xrotation Yrotation
								End site
								{
									OFFSET 0.00000 0.00000 0.00000
								}
							}
						}
					}
					JOINT RightShoulder
					{
						OFFSET -0.01000 7.91373 5.19711
						CHANNELS 3 Zrotation Xrotation Yrotation
						JOINT RightArm
						{
							OFFSET -18.41580 0.00000 0.00000
							CHANNELS 3 Zrotation Xrotation Yrotation
							JOINT RightForeArm
							{
								OFFSET -29.11090 0.00000 0.00000
								CHANNELS 3 Zrotation Xrotation Yrotation
								JOINT RightHand
								{
									OFFSET -24.65040 0.00000 0.00000
									CHANNELS 3 Zrotation Xrotation Yrotation
									JOINT RightHandThumb1
									{
										OFFSET -5.35114 -0.85590 3.97906
										CHANNELS 3 Zrotation Xrotation Yrotation
										JOINT RightHandThumb2
										{
											OFFSET -4.52789 0.00000 0.00000
											CHANNELS 3 Zrotation Xrotation Yrotation
											JOINT RightHandThumb3
											{
												OFFSET -2.46976 0.00000 0.00000
												CHANNELS 3 Zrotation Xrotation Yrotation
												End site
												{
													OFFSET 0.00000 0.00000 0.00000
												}
											}
										}
									}
									JOINT RightHandIndex1
									{
										OFFSET -14.26970 0.00000 2.88139
										CHANNELS 3 Zrotation Xrotation Yrotation
										JOINT RightHandIndex2
										{
											OFFSET -5.48836 0.00000 0.00000
											CHANNELS 3 Zrotation Xrotation Yrotation
											JOINT RightHandIndex3
											{
												OFFSET -3.01859 0.00000 0.00000
												CHANNELS 3 Zrotation Xrotation Yrotation
												End site
												{
													OFFSET 0.00000 0.00000 0.00000
												}
											}
										}
									}
									JOINT RightHandMiddle1
									{
										OFFSET -14.26970 0.00000 -0.09147
										CHANNELS 3 Zrotation Xrotation Yrotation
										JOINT RightHandMiddle2
										{
											OFFSET -6.17441 0.00000 0.00000
											CHANNELS 3 Zrotation Xrotation Yrotation
											JOINT RightHandMiddle3
											{
												OFFSET -3.56743 0.00000 0.00000
												CHANNELS 3 Zrotation Xrotation Yrotation
												End site
												{
													OFFSET 0.00000 0.00000 0.00000
												}
											}
										}
									}
									JOINT RightHandRing1
									{
										OFFSET -12.69180 0.00000 -3.06433
										CHANNELS 3 Zrotation Xrotation Yrotation
										JOINT RightHandRing2
										{
											OFFSET -5.62556 0.00000 0.00000
											CHANNELS 3 Zrotation Xrotation Yrotation
											JOINT RightHandRing3
											{
												OFFSET -3.56744 0.00000 0.00000
												CHANNELS 3 Zrotation Xrotation Yrotation
												End site
												{
													OFFSET 0.00000 0.00000 0.00000
												}
											}
										}
									}
									JOINT RightHandPinky1
									{
										OFFSET -11.11390 0.00000 -6.03719
										CHANNELS 3 Zrotation Xrotation Yrotation
										JOINT RightHandPinky2
										{
											OFFSET -4.52789 0.00000 0.00000
											CHANNELS 3 Zrotation Xrotation Yrotation
											JOINT RightHandPinky3
											{
												OFFSET -2.46976 0.00000 0.00000
												CHANNELS 3 Zrotation Xrotation Yrotation
												End site
												{
													OFFSET 0.00000 0.00000 0.00000
												}
											}
										}
									}
								}
							}
						}
					}
					JOINT LeftShoulder
					{
						OFFSET 0.01000 7.91373 5.19711
						CHANNELS 3 Zrotation Xrotation Yrotation
						JOINT LeftArm
						{
							OFFSET 18.41580 0.00000 0.00000
							CHANNELS 3 Zrotation Xrotation Yrotation
							JOINT LeftForeArm
							{
								OFFSET 29.11090 0.00000 0.00000
								CHANNELS 3 Zrotation Xrotation Yrotation
								JOINT LeftHand
								{
									OFFSET 24.65040 0.00000 0.00000
									CHANNELS 3 Zrotation Xrotation Yrotation
									JOINT LeftHandThumb1
									{
										OFFSET 5.35114 -0.85590 3.97906
										CHANNELS 3 Zrotation Xrotation Yrotation
										JOINT LeftHandThumb2
										{
											OFFSET 4.52789 0.00000 0.00000
											CHANNELS 3 Zrotation Xrotation Yrotation
											JOINT LeftHandThumb3
											{
												OFFSET 2.46977 0.00000 0.00000
												CHANNELS 3 Zrotation Xrotation Yrotation
												End site
												{
													OFFSET 0.00000 0.00000 0.00000
												}
											}
										}
									}
									JOINT LeftHandIndex1
									{
										OFFSET 14.26970 0.00000 2.88139
										CHANNELS 3 Zrotation Xrotation Yrotation
										JOINT LeftHandIndex2
										{
											OFFSET 5.48836 0.00000 0.00000
											CHANNELS 3 Zrotation Xrotation Yrotation
											JOINT LeftHandIndex3
											{
												OFFSET 3.01859 0.00000 0.00000
												CHANNELS 3 Zrotation Xrotation Yrotation
												End site
												{
													OFFSET 0.00000 0.00000 0.00000
												}
											}
										}
									}
									JOINT LeftHandMiddle1
									{
										OFFSET 14.26970 0.00000 -0.09147
										CHANNELS 3 Zrotation Xrotation Yrotation
										JOINT LeftHandMiddle2
										{
											OFFSET 6.17440 0.00000 0.00000
											CHANNELS 3 Zrotation Xrotation Yrotation
											JOINT LeftHandMiddle3
											{
												OFFSET 3.56744 0.00000 0.00000
												CHANNELS 3 Zrotation Xrotation Yrotation
												End site
												{
													OFFSET 0.00000 0.00000 0.00000
												}
											}
										}
									}
									JOINT LeftHandRing1
									{
										OFFSET 12.69180 0.00000 -3.06433
										CHANNELS 3 Zrotation Xrotation Yrotation
										JOINT LeftHandRing2
										{
											OFFSET 5.62556 0.00000 0.00000
											CHANNELS 3 Zrotation Xrotation Yrotation
											JOINT LeftHandRing3
											{
												OFFSET 3.56744 0.00000 0.00000
												CHANNELS 3 Zrotation Xrotation Yrotation
												End site
												{
													OFFSET 0.00000 0.00000 0.00000
												}
											}
										}
									}
									JOINT LeftHandPinky1
									{
										OFFSET 11.11390 0.00000 -6.03719
										CHANNELS 3 Zrotation Xrotation Yrotation
										JOINT LeftHandPinky2
										{
											OFFSET 4.52789 0.00000 0.00000
											CHANNELS 3 Zrotation Xrotation Yrotation
											JOINT LeftHandPinky3
											{
												OFFSET 2.46976 0.00000 0.00000
												CHANNELS 3 Zrotation Xrotation Yrotation
												End site
												{
													OFFSET 0.00000 0.00000 0.00000
												}
											}
										}
									}
								}
							}
						}
					}
					JOINT pCube4
					{
						OFFSET 0.00000 10.91090 1.10792
						CHANNELS 3 Zrotation Xrotation Yrotation
						End site
						{
							OFFSET 0.00000 0.00000 0.00000
						}
					}
				}
			}
		}
	}
	JOINT RightUpLeg
	{
		OFFSET -9.98441 0.00000 0.00000
		CHANNELS 3 Zrotation Xrotation Yrotation
		JOINT RightLeg
		{
			OFFSET 0.00000 -42.11790 0.00000
			CHANNELS 3 Zrotation Xrotation Yrotation
			JOINT RightFoot
			{
				OFFSET 0.00000 -45.00020 -0.00001
				CHANNELS 3 Zrotation Xrotation Yrotation
				JOINT RightForeFoot
				{
					OFFSET 0.00000 -3.74820 0.00000
					CHANNELS 3 Zrotation Xrotation Yrotation
					JOINT RightToeBase
					{
						OFFSET 0.00000 0.06325 14.43120
						CHANNELS 3 Zrotation Xrotation Yrotation
						End site
						{
							OFFSET 0.00000 0.00000 0.00000
						}
					}
				}
			}
		}
	}
	JOINT LeftUpLeg
	{
		OFFSET 9.98441 0.00000 0.00000
		CHANNELS 3 Zrotation Xrotation Yrotation
		JOINT LeftLeg
		{
			OFFSET 0.00000 -42.11800 0.00000
			CHANNELS 3 Zrotation Xrotation Yrotation
			JOINT LeftFoot
			{
				OFFSET 0.00000 -45.00070 0.00000
				CHANNELS 3 Zrotation Xrotation Yrotation
				JOINT LeftForeFoot
				{
					OFFSET 0.00000 -3.74824 0.00000
					CHANNELS 3 Zrotation Xrotation Yrotation
					JOINT LeftToeBase
					{
						OFFSET 0.00000 0.06325 14.43110
						CHANNELS 3 Zrotation Xrotation Yrotation
						End site
						{
							OFFSET 0.00000 0.00000 0.00000
						}
					}
				}
			}
		}
	}
}
MOTION
Frames: 4
Frame Time: 0.050000
0.02682083732707225 0.03249203341790291 -0.04801700666538994 0.03924374313056365 0.04051261754796707 -0.041150695747404376 -4.203563781017889 5.8683249834487805 -0.5250821760773464 -0.5924950015073195 3.2176486300434446 0.3328456999734599 -0.6757028830428173 -0.49230858944779865 -1.7194804724578145 -1.1949619781403438 0.13165693210342652 -0.9833375043562516 -1.8238947120551046 9.671460607709868 4.022918217907583 -0.307551698154618 -1.1019702338683708 7.0175542130215485 -1.4905101855820255 -15.56551560871267 0.6484014804552601 4.1309354569934715 -0.26077991866256145 -10.129792020547978 65.59460511817348 7.351417578607284 22.383283314785718 46.67667726734412 18.03093302746559 103.02206639817697 26.52778297168153 0.008622468229400992 -11.051532366746553 4.495778383521927 -0.14207334158862772 -1.6120895670953324 0.016437403047969822 0.033986465722378886 -56.22690098466655 -0.009265215250537591 0.04342156627840882 -56.20701329015368 -38.781273933419804 0.04361016746031978 -0.012846927887019754 0.03663176359152643 0.004766784947576134 0.0038504766747987254 0.015615749803686914 -0.02461680409871259 -0.020077783977293276 -36.70253750410498 0.023238878356724665 0.0276198666794247 0.02571003377561739 -0.0013041463796439959 -0.02301325402394013 -0.0346992536672446 0.022543120579186938 0.003010711990267897 -19.78355740576095 0.0357115546427932 0.04076847056486812 0.008487292745704223 0.015228361327223789 0.035130581518199 -0.039818686253617605 -0.007562082279645441 -0.04015131826643133 24.021745359271215 -0.04687466041029996 -0.004765022747199279 28.873730456866728 -0.02011570466387884 -0.010369436522916848 28.8910811952575 0.04667053119855361 0.028270961091040173 1.7821148354613994 0.8856283215226078 9.34447438913472 -64.95098866443665 12.839494096223973 -31.457435181638697 -85.07639444480618 12.075258862581999 -120.59739227734129 -32.00754558045732 -5.474885649474444 3.1784271466601504 -0.47344555376615377 0.10825518663033061 -8.164006955818147 0.0038793067985239127 -0.01918046124405439 44.599833613170524 0.029391322921855607 -0.01373003002666933 44.584779279925904 12.50356095478838 0.042135118657379525 -0.003912479735933209 0.008577873151713942 -0.01069508122330794 -0.007374721957879323 -0.02245123036989266 -0.006429392649776945 0.026593545316875963 11.141362082088921 -0.024487287219709983 0.03266758811188197 0.03638153286338156 -0.015111741887972954 0.01982073818789934 -0.01590231546900749 0.0036145895857794827 0.0369035252093377 4.780426593297648 0.012801211562460108 0.030267775433321643 -0.03231700802086693 -0.024451365885571008 -0.021175656504874307 0.03984229976917861 -0.01213921566655454 0.03334004426289838 -5.580719196275651 -0.02452351864737839 0.03858771320514657 -6.76694584301821 -0.012946899139847335 -0.02159253376354581 -6.748112525994041 0.03193549867704193 0.03137890145537792 0.03388479872410419 0.016310281513062623 -0.046099976456662466 8.015962053159107 3.494039559836307 -19.18436159398916 -0.02693116008621586 10.385213640529932 0.03519185567383239 -5.599648222491407 -15.632087177386568 3.2306998794226263 -0.02825227714476193 -0.01188160999795767 -0.04940505224015494 0.010389060724989069 4.712796285430761 0.02499995194276619 12.474874536102178 -8.21451843391509 6.859069002529253 0.024653809188699662 46.37166904591816 0.03325717233271226 -4.31025958649706 -14.71415541385211 -3.843087599207782 -0.009083043167684119 0.0059707826685343685 -0.031548213290822004 0.04289352888096712 -10.720937206356297 -0.04751989554979974 
0.04622310388290461 -0.009078071845038836 -0.0070330176144524584 -0.011902082941929239 0.017140828516130302 -0.02549839590084567 -3.9921383267575274 5.574039455406487 -0.6381973664671231 -0.599504634186028 3.258023493915973 0.3155376172107368 -0.7237539361816103 -0.52198794818999 -1.692848710931764 -1.1660279559422724 0.1361028503541574 -0.9635577512973068 -1.8239802465607189 9.77536846547251 4.0015344283989505 -0.332026804829741 -1.2429604114775208 7.251465018076947 -1.4094805577359422 -15.779449352746878 0.6676058808951104 3.746226919872849 -0.1620871739998919 -10.194632253215007 66.27526193640819 8.289020985415114 21.618743554764908 47.77156210313164 18.775616406254553 102.75034962407251 26.16650176241743 0.06610561222183566 -11.119730877588383 4.478791665334892 -0.1576731829296368 -1.548735565504606 -0.010858791405786453 0.021274506407900726 -56.20360518296779 -0.012452428441068026 0.033847757572569505 -56.22180105826149 -38.796058177962855 0.043146906107479836 0.0158026607871449 -0.03600888076181367 -0.026124743391901222 -0.02224654079197296 -0.020850868076698142 0.009655844554949318 -0.019605092738766816 -36.70387230631202 -0.01600098332730742 0.01645066101701048 0.03842757601817052 0.000795449115232233 -0.025713716647759673 0.0342475394327143 0.0020772119445453237 -0.04398426629900096 -19.76165370935757 0.006350733178389684 0.001326677618408153 -0.01052834466869781 -0.007540762842410409 0.033181006471413456 0.015831981437429466 -0.01349486844153032 -0.003710459015144372 24.018434445823047 -0.03663759778712615 -0.012311562911522286 28.89502010548491 -0.03335977881572509 0.0016555617414273766 28.84656628469557 -0.045361421754588085 0.017717097477033365 2.1571913189654115 0.954078650328349 9.35723023636378 -65.77177268397267 14.066787159484885 -30.88566921526297 -87.77840918937905 12.06276710984634 -121.58614220291008 -32.32531062312527 -6.1728911501795665 3.925424303520294 -0.4946887593936866 0.07887997014399711 -8.083119223592856 0.0032454438608605363 -0.029755097368503337 44.54551656459965 -0.016239153203262687 -0.015763224007866925 44.57349784022483 12.498764924069679 -0.014932445228765278 0.03792636369412112 0.04024005337067784 0.035724626425972156 -0.049085571154646096 0.03260895293170364 0.02094430263199448 -0.006229210762127373 11.097967547812514 -0.016985859545149678 -0.01152365828823116 -0.03815814784503017 0.006803848822804549 0.018635264404024132 0.01673779506712624 -0.009709979300131644 -0.008510418860839863 4.761814641279827 0.007582731963991425 0.03929106144881223 -0.0460287335062005 -0.02055172184759115 0.017212642249148646 0.02068466625795952 -0.002243430601821889 -0.010736145986629574 -5.5887650016837425 0.03572525312357546 0.04510334420153671 -6.730954992688988 -0.040399563973758434 0.008788794646323345 -6.691355106481496 -0.03550832305268047 0.007573726748221401 0.017928586493162313 -0.03508405337703321 0.010797671839483974 8.03842935810897 3.5213298880056905 -19.22208632465259 0.01739601101754672 10.391824170929018 0.010126090644291305 -5.669005203239728 -15.661611452770096 3.2263399986632506 0.0343792364532223 -0.03983072472156617 -0.03710866380407695 0.013857502376099106 4.687175778934681 0.016763948556892942 12.479031266600828 -8.27916494831023 6.892739505651743 -0.04918427619741102 46.3606891955187 -0.016626794121780596 -4.331648421441408 -14.729289437113287 -3.81936426758586 0.016034831604727993 -0.020714685520649777 0.019027702977952487 0.03764326202184099 -10.695556221023345 -0.0007123367648183494 
-0.04630552825382436 -0.024590219277538072 -0.028296736453360272 -0.01569657617440498 0.008463344159781207 -0.04223956925766717 -3.7588493562929144 5.2158141858640645 -0.6909587564014332 -0.6369593751958811 3.2075040266800143 0.3265344565376703 -0.6552834329160593 -0.5786154458144166 -1.6125884402769912 -1.1872535148150765 0.0676498257902393 -0.957509030836114 -1.7650638196445438 10.004217522979014 3.945432456418753 -0.33479031449608454 -1.25023859446528 7.3061095137416245 -1.369990656537857 -15.963281751501901 0.6444940160501932 3.180607982460726 -0.018071249685971395 -10.4265778732012 67.46979410065997 9.061692245028379 21.14437153200849 48.249204513383894 19.36026004281136 102.34609465050372 25.444568195668786 -0.06700898931418015 -11.097760168961408 4.54779273873048 -0.11126527083403402 -1.5692903462589944 0.016933514201451044 -0.03088725416126741 -56.233410825555524 0.027982305770758494 0.014978985082600635 -56.26052208545522 -38.75367294072695 0.010341033700560413 0.0003735900035840841 -0.014220494704156959 0.019950774639361728 -0.034669160565803055 -0.008780981119169763 0.03358619175692776 0.004529824268961493 -36.705685760494944 0.024765785683222415 0.022267261115984125 -0.04778960152665242 0.0009271674961306045 0.03410129539991596 0.047872164955071794 -0.03054975278883242 0.03945142764443878 -19.743007160400886 0.038571910245431454 -0.028192228656837973 0.010832876537052434 -0.0275551063986697 -0.01232416573045088 -0.015151821197347388 -0.03039633221310966 -0.006073840258593593 24.080894025583298 0.015308929217480886 -0.03787200045406152 28.885132401553943 -0.028134910696137178 0.010700725652164126 28.9110428391522 -0.015565679087898887 -0.025633298847148645 2.6463381950217655 1.033645406974661 9.45328635621142 -66.84504648781804 15.291237564098639 -30.4006510492802 -89.51218469130127 12.36580551035742 -122.28348469217588 -32.23498861392911 -6.6633926852572465 4.594012951616129 -0.4372925776143083 0.06445023891337494 -8.081450924659755 -0.049946163445970825 -0.04456226321483292 44.58380038300831 0.04681599468232363 0.00963112264536899 44.57155736504166 12.466938139140613 0.007605861743263508 -0.038727478308573746 0.00903914522954854 0.014885389062700557 -0.03026536960284804 -0.040513058081450073 0.0009300436278048478 0.005407568685991935 11.06842091912209 0.04705091348571604 0.03354212001238219 -0.030397553973622794 -0.007011798603549356 -0.00448803593145421 0.005230829168848632 0.04387448159770486 0.03402174668809634 4.782699609046633 0.027654354421686747 -0.025509500617057937 -0.019986976249896687 0.03745500999246873 -0.03911508244767634 -0.03356409212394767 0.011402918750271312 0.024652708764784162 -5.626881360930062 0.030141065178597125 0.012233617396011429 -6.745471420483685 -0.007448944796398418 -0.011095484946763037 -6.688723910222161 0.04906278970666036 -0.04512322646701712 0.032516729709478526 0.01621532428627047 -0.04834752946403727 8.069435329450924 3.493149174574419 -19.227356345526356 0.006348679127008519 10.371151863540677 0.03225458689531715 -5.617002746088358 -15.708926161857262 3.2279778540280466 -0.037110046145679136 0.02003334956357156 0.043974226724814575 0.02287059352057546 4.685973510541903 0.038233913984808146 12.504122491639098 -8.268158139694181 6.918879420519941 0.007506977262784225 46.33063167451572 -0.010335631802720754 -4.311525133400971 -14.764082506355376 -3.823879936608205 -0.028014176922657116 -0.01439129274223991 -0.003678224938380793 0.04947920655854815 -10.752591463381163 0.04980016057704486 
-0.016622407143310945 -0.01646210413770015 0.007585250595836965 -0.01376192404172867 -0.00230767405377381 -0.016502189884704723 -3.37249267791915 4.864701377307891 -0.6747332684052032 -0.6064440632573677 3.30111941283159 0.35336065588224014 -0.724588314476458 -0.7186882031429569 -1.5143141517518635 -1.1686397286252488 0.0025442022893220305 -0.9112380741011837 -1.6714095776923883 10.206162247383343 3.8050914274566923 -0.18398408212522455 -1.2805305727648886 7.120481426225227 -1.2707687495753373 -16.143373555311072 0.6206475638647433 2.3998867676135465 0.30824643054306683 -10.658325519047995 68.89075724038156 9.327465035596656 20.610204844718965 48.5513609300704 20.09630026623636 101.85171429724075 24.782620566854977 -0.08193928904231415 -10.936200523688315 4.501946695385136 -0.1328325892567938 -1.5903226138221704 -0.005922722574401884 -0.012194055025180662 -56.2798174642354 -0.04163226775047477 0.02605196609013722 -56.280205227331244 -38.75531325002247 0.0061067351966050225 0.0033384840809264423 -0.015855033609184162 0.005847406538613824 -0.047098047395447144 -0.011511010859060727 -0.03659130639998594 -0.03980609064260805 -36.740889340998514 -0.026052725715988018 -0.012703622832495326 -0.022617443511890312 -0.022426887884719093 0.015443930919089171 -0.023433536546058578 -0.048129557535627324 -0.0039848470841372515 -19.743302946041165 -0.03289072420674468 0.04788924619722065 0.015315307317623652 0.03627479426985396 -0.024468113728641605 0.03364367952209558 -0.028686439004151926 0.04378642513130206 24.05613104408546 -0.03134244501126072 -0.031994390152479894 28.872984937750246 -0.022594052292174493 0.03816002882378859 28.86717613035492 -0.01711748730728977 -0.015578589369341212 3.2255433354178287 1.1803846105091553 9.671337739895815 -67.98578313417556 16.21201103240445 -29.80371848781887 -90.51225013723513 12.956481972137261 -123.0693984567698 -32.296780494799485 -7.280623451348913 5.279304702134383 -0.46152797242054067 0.05033925235923817 -8.167973721643747 0.00830304967857335 -0.02663909661121114 44.57691440118791 0.0025162943390095185 0.0016489105960421438 44.56652455520532 12.412133094908153 0.04238124737073068 -0.006240513202061697 0.04932648943096351 -0.027321844458339076 -0.0475165522500698 -0.009620981727595842 0.03674077473003808 0.010436467501276178 11.130550905560472 -0.002049376776024094 -0.02226307601956115 0.026724567827669493 -0.02165166706466382 -0.03411908105215759 -0.00305184393296129 -0.019121163623190444 -0.006466482667312269 4.806844314170246 0.036230007488585646 0.033251011386086604 -0.03994827343276546 -0.022570092508588085 -0.014290028694246037 0.008162515259084254 -0.035015981914778636 0.012970939992849083 -5.574693869896621 0.04467717287774188 0.028742961074466868 -6.767959912611887 -0.016901300088052903 -0.029311995514009592 -6.757035348098446 0.0017247688450985736 -0.027827955877947994 0.015010618477530128 -0.0232049386812254 -0.03025969160208307 8.083385701241017 3.5297123772987105 -19.20568200393973 0.004545343360966379 10.404514543181092 0.02576167198961294 -5.641916779475102 -15.619168308323978 3.201700673823497 0.03268684884966262 0.007613895036656807 -0.025399926570836576 -0.02199036059464805 4.66762909651572 -0.026415756707830692 12.414229962800087 -8.198765219719698 6.860994931939595 -0.0014252721480151039 46.40631955525626 -0.012146310216307353 -4.315299711180374 -14.74373336651816 -3.8372438809251164 -0.023059648677714754 0.0172513819183597 0.04970086517594031 -0.024032784144866277 -10.754112183493188 -0.01929350356579645 
